<?xml version="1.0" encoding="utf-8"?>
<svg viewBox="-136.05 49.9937 772.1 400.0116" width="772.1" height="400.0116" xmlns="http://www.w3.org/2000/svg">
  <path d="M 124 162.015 L 124 146.015 C 124 132.715 134.7 122.015 148 122.015 L 508 122.015 L 508 74.015 C 508 52.615 533.9 42.015 549 57.015 L 629 137.015 C 638.4 146.415 638.4 161.615 629 170.915 L 549 250.915 C 534 266.015 508 255.515 508 234.015 L 508 186.015 L 148 186.015 C 134.7 186.015 124 175.315 124 162.015 Z M 352 314.015 L -8 314.015 L -8 266.015 C -8 244.715 -33.9 233.915 -49 249.015 L -129 329.015 C -138.4 338.415 -138.4 353.615 -129 362.915 L -49 442.915 C -33.9 458.015 -8 447.415 -8 426.015 L -8 378.015 L 352 378.015 C 365.3 378.015 376 367.315 376 354.015 L 376 338.015 C 376 324.715 365.3 314.015 352 314.015 Z"/>
</svg>